HIERARCHY
ROOT Hips
{
	OFFSET 0.00000 0.00000 0.00000
	CHANNELS 6 Xposition Yposition Zposition Yrotation Zrotation Xrotation 
	JOINT Lumbar
	{
		OFFSET 0 0 0
		CHANNELS 3 Zrotation Xrotation Yrotation
		JOINT Neck
		{
			OFFSET 0.00 0.2701 0.00
			CHANNELS 3 Zrotation Xrotation Yrotation
			End Site
			{
				OFFSET 0.00 0.1379 0.00
			}
		}
		JOINT RightShoulder
		{
			OFFSET 0.0119 0.2289 0.1181
			CHANNELS 3 Zrotation Xrotation Yrotation
			JOINT RightElbow
			{
				OFFSET 0.00 -0.1475 0.00
				CHANNELS 2 Zrotation Yrotation
				JOINT RightWrist
				{
					OFFSET 0.00 -0.1605 0.00
					CHANNELS 2 Zrotation Xrotation
					End Site
					{
						OFFSET 0.0040 -0.1068 0.0006
					}
				}
			}
		}
		JOINT LeftShoulder
		{
			OFFSET 0.0119 0.2289 -0.1181
			CHANNELS 3 Zrotation Xrotation Yrotation
			JOINT LeftElbow
			{
				OFFSET 0.00 -0.1475 0.00
				CHANNELS 2 Zrotation Yrotation
				JOINT LeftWrist
				{
					OFFSET 0.00 -0.1605 0.00
					CHANNELS 2 Zrotation Xrotation
					End Site
					{
						OFFSET 0.0040 -0.1068 -0.0006
					}
				}
			}
		}
	}
	JOINT RightHip
	{
		OFFSET 0.0316 -0.0424 0.0458
		CHANNELS 3 Zrotation Xrotation Yrotation
		JOINT RightKnee
		{
			OFFSET 0.00 -0.2438 0.00
			CHANNELS 1 Zrotation
			JOINT RightAnkle
			{
				OFFSET 0.00 -0.2449 0.00
				CHANNELS 3 Zrotation Xrotation Yrotation
				End Site
				{
					OFFSET 0.1237 -0.0542 0.0051
				}
			}
		}
	}
	JOINT LeftHip
	{
		OFFSET 0.0316 -0.0424 -0.0458
		CHANNELS 3 Zrotation Xrotation Yrotation
		JOINT LeftKnee
		{
			OFFSET 0.00 -0.2438 0.00
			CHANNELS 1 Zrotation
			JOINT LeftAnkle
			{
				OFFSET 0.00 -0.2449 0.00
				CHANNELS 3 Zrotation Xrotation Yrotation
				End Site
				{
					OFFSET 0.1237 -0.0542 -0.0051
				}
			}
		}
	}
}
MOTION
Frames: 17
Frame Time: 0.02
-0 0.57926 0 182.24074 0 -3.25377 0.34572 1.96179 -1.93743 -26.31057 5.93414 0.21253 -14.78981 -69.32576 -74.97868 20.02312 79.07852 -16.52012 -2.37108 -7.52081 60.80993 68.69251 22.29519 -75.79157 -26.75744 2.14726 -2.9574 3.70515 7.1911 -7.54166 -1.69087 -2.77838 -6.63378 -2.16348 3.19924 2.77787 -7.06477 4.22807 0.68503 -2.17045
8e-05 0.57927 -7e-05 182.33214 0 -3.24429 0.34558 1.95285 -1.95005 -26.31046 5.94543 0.20576 -14.70599 -69.30604 -74.9424 19.98747 79.08137 -16.51282 -2.36886 -7.38324 60.77249 68.64481 22.23902 -75.57159 -26.90334 2.10963 -2.98747 3.70402 7.11179 -7.49428 -1.70497 -2.79221 -6.64391 -2.14994 3.19717 2.6937 -7.04196 4.18762 0.67604 -2.16933
0.00017 0.57928 -0.00014 182.42315 0 -3.23489 0.34552 1.94399 -1.96267 -26.31054 5.95681 0.19911 -14.62251 -69.28679 -74.9061 19.95206 79.0839 -16.50551 -2.36669 -7.24648 60.73501 68.59747 22.18344 -75.35308 -27.04751 2.07257 -3.01731 3.70296 7.03282 -7.44734 -1.71895 -2.80591 -6.65405 -2.13638 3.19514 2.60999 -7.01945 4.14748 0.66712 -2.16825
0.00025 0.57929 -0.00021 182.51308 0 -3.22576 0.34546 1.9354 -1.97516 -26.31061 5.9686 0.19284 -14.54035 -69.26899 -74.86945 19.91737 79.08526 -16.49815 -2.36466 -7.11261 60.69702 68.55121 22.1299 -75.13786 -27.18639 2.0376 -3.04636 3.70222 6.95486 -7.40173 -1.73266 -2.81922 -6.66452 -2.12255 3.19329 2.52731 -6.99802 4.10827 0.6585 -2.16702
0.00034 0.5793 -0.00028 182.60824 0 -3.21522 0.34503 1.9254 -1.98804 -26.30982 5.97812 0.18452 -14.45213 -69.24322 -74.83477 19.87897 79.09293 -16.49114 -2.36184 -6.96464 60.66177 68.49936 22.06582 -74.9047 -27.35356 1.99177 -3.07938 3.69986 6.87209 -7.34912 -1.74791 -2.83454 -6.67343 -2.11011 3.19052 2.43919 -6.97099 4.06421 0.64839 -2.16623
0.00042 0.57931 -0.00034 182.69255 0 -3.20765 0.34565 1.91839 -2.00026 -26.31146 5.9925 0.18059 -14.3762 -69.23454 -74.79585 19.84841 79.08716 -16.48336 -2.36071 -6.84582 60.62073 68.4593 22.02395 -74.71006 -27.46057 1.96881 -3.10411 3.70087 6.79919 -7.3113 -1.75982 -2.84566 -6.6855 -2.09479 3.18968 2.36263 -6.95578 4.03042 0.6414 -2.16475
0.00048 0.57932 -0.00039 182.74577 0 -3.20877 0.34688 1.91996 -2.0095 -26.31491 6.02067 0.18878 -14.33852 -69.27273 -74.74475 19.83977 79.04352 -16.47338 -2.36425 -6.81423 60.56233 68.45274 22.04558 -74.61733 -27.39968 2.01211 -3.10456 3.71202 6.75572 -7.31542 -1.76287 -2.84453 -6.70802 -2.07033 3.19448 2.31729 -6.97463 4.0253 0.64359 -2.1591
0.00053 0.57932 -0.00042 182.78828 0 -3.21282 0.34954 1.92452 -2.01828 -26.32163 6.05369 0.20142 -14.31246 -69.32823 -74.68941 19.83898 78.9864 -16.46264 -2.3695 -6.81094 60.49828 68.45792 22.08924 -74.56416 -27.27836 2.07799 -3.09685 3.72643 6.72175 -7.3343 -1.76246 -2.83926 -6.7334 -2.04314 3.20115 2.28363 -7.00523 4.03052 0.64885 -2.15311
0.00057 0.57933 -0.00046 182.83656 0 -3.21522 0.35308 1.92751 -2.02807 -26.33019 6.0843 0.21207 -14.27812 -69.3761 -74.63627 19.83439 78.9359 -16.45227 -2.37396 -6.79013 60.43766 68.45713 22.12146 -74.49577 -27.18573 2.13154 -3.09383 3.73884 6.68194 -7.34564 -1.7634 -2.83632 -6.75641 -2.01797 3.20676 2.24515 -7.02952 4.0307 0.65233 -2.14881
0.00064 0.57934 -0.0005 182.88116 0 -3.21891 0.35034 1.93134 -2.03456 -26.32513 6.11579 0.22263 -14.25616 -69.42314 -74.58203 19.83075 78.88334 -16.44177 -2.37847 -6.78842 60.37343 68.45904 22.15977 -74.41601 -27.08779 2.19372 -3.08683 3.75343 6.64854 -7.36031 -1.76538 -2.83153 -6.78411 -1.9896 3.21331 2.20496 -7.05775 4.03212 0.6574 -2.13823
0.00067 0.57934 -0.00053 182.93068 0 -3.22065 0.3608 1.93418 -2.0477 -26.34868 6.14656 0.23437 -14.21154 -69.4758 -74.52903 19.82705 78.83183 -16.43141 -2.38328 -6.75437 60.31538 68.45811 22.19054 -74.36902 -26.98672 2.24344 -3.08597 3.76424 6.60408 -7.37179 -1.76428 -2.82954 -6.80253 -1.96713 3.21831 2.17067 -7.08075 4.03369 0.65996 -2.1404
0.00057 0.57934 -0.00052 182.99816 0 -3.21609 0.40925 1.9331 -2.08049 -26.45505 6.17465 0.24886 -14.09845 -69.54179 -74.48083 19.82069 78.78669 -16.42112 -2.38838 -6.6179 60.27573 68.4463 22.1961 -74.40529 -26.89039 2.25187 -3.10605 3.76397 6.5266 -7.36875 -1.7562 -2.83692 -6.79633 -1.96276 3.21881 2.15358 -7.08486 4.03068 0.65394 -2.17996
0.00044 0.57934 -0.0005 183.07063 0 -3.2095 0.47057 1.93101 -2.11983 -26.58923 6.20173 0.26433 -13.96274 -69.61245 -74.43401 19.81408 78.74303 -16.41107 -2.39373 -6.44905 60.24252 68.43127 22.19318 -74.47274 -26.79327 2.24723 -3.13225 3.75975 6.43784 -7.36233 -1.74506 -2.84715 -6.78053 -1.96421 3.21764 2.14145 -7.08356 4.02782 0.64543 -2.23199
0.00033 0.57934 -0.00049 183.13964 0 -3.20396 0.52475 1.9297 -2.15532 -26.70766 6.22898 0.27893 -13.83934 -69.67968 -74.38632 19.80796 78.69856 -16.40124 -2.39904 -6.29908 60.20636 68.41782 22.19348 -74.52426 -26.69738 2.24953 -3.15429 3.75722 6.35417 -7.3589 -1.73483 -2.85564 -6.76783 -1.96221 3.21706 2.12438 -7.0858 4.02668 0.63868 -2.27692
0.0002 0.57934 -0.00048 183.21327 0 -3.198 0.58446 1.92716 -2.19423 -26.8394 6.25773 0.29529 -13.70767 -69.7531 -74.33937 19.80061 78.65416 -16.39005 -2.40414 -6.13253 60.17006 68.40427 22.19711 -74.58444 -26.59561 2.24852 -3.18173 3.75522 6.27039 -7.35008 -1.72633 -2.86582 -6.75995 -1.96346 3.21722 2.11847 -7.08398 4.01882 0.6295 -2.32781
0.0001 0.57933 -0.00046 183.27867 0 -3.19239 0.63567 1.92687 -2.2279 -26.94992 6.28294 0.30838 -13.58786 -69.81442 -74.29143 19.79556 78.61019 -16.38168 -2.40965 -5.99244 60.13572 68.39005 22.19164 -74.63368 -26.50682 2.25084 -3.19964 3.75119 6.18477 -7.35118 -1.71376 -2.87328 -6.74049 -1.95943 3.21545 2.09108 -7.08903 4.02427 0.6246 -2.36935
0.00012 0.57933 -0.00041 183.31961 0 -3.1882 0.66056 1.93311 -2.24263 -26.99526 6.29965 0.3101 -13.50498 -69.84187 -74.2388 19.79779 78.56685 -16.38169 -2.41675 -5.93331 60.10469 68.37416 22.16184 -74.64301 -26.45314 2.2668 -3.18835 3.74202 6.09052 -7.38319 -1.68889 -2.87185 -6.6846 -1.93893 3.20846 1.99662 -7.11574 4.07145 0.6334 -2.38131
